<svg id="ACME" xmlns="http://www.w3.org/2000/svg" viewBox="0 0 815.83 323.44"><defs><style>.cls-1,.cls-3{isolation:isolate;}.cls-1,.cls-2,.cls-3{font-size:46px;fill:#fff;stroke:#020202;stroke-width:2px;font-family:BrownPaper, Brown Paper;}.cls-1,.cls-2,.cls-3,.cls-4,.cls-5{stroke-miterlimit:10;}.cls-3{letter-spacing:0.02em;}.cls-4{fill:#231f20;stroke:#fff;stroke-width:3px;}.cls-5{fill:#600205;stroke:#231f20;stroke-width:4px;}</style></defs><g id="A_Company_making_everything" data-name="A Company making everything"><text class="cls-1" transform="translate(567.29 310.62) scale(1.12 1)">r</text><text class="cls-2" transform="translate(567.29 310.62) scale(1.12 1)">r</text><text class="cls-3" transform="translate(587.48 310.62) scale(1.12 1)">ything</text><text class="cls-3" transform="translate(587.48 310.62) scale(1.12 1)">ything</text><text class="cls-3" transform="translate(108.85 310.6) scale(1.12 1)">A Company Making Eve</text><text class="cls-3" transform="translate(108.85 310.6) scale(1.12 1)">A Company Making Eve</text></g><g id="cme"><path class="cls-4" d="M374.22,75.2c-12.9,3.1-17.2,4.6-27.5,9.4-5.8,2.7-7.3,3.6-14,8.7-6.2,4.5-16.6,15.4-18.1,18.7a58.59,58.59,0,0,1-3,5.5c-5.7,9.5-8.9,23.1-8.9,38.6,0,18.8,3.9,31.8,13.4,44.4,6.6,8.8,24.1,20.6,34.1,23.2,1.7.4,4.4,1.2,6,1.7,9.4,3.2,18.6,4.2,38.8,4.2,20,0,32.7-1,37.5-3,1.6-.7,2.2-1.8,2.2-4.2a70.87,70.87,0,0,1,1.4-10.3c3.1-15.1,4-20.2,4-24l.1-4-4,.3a61.71,61.71,0,0,0-9.5,2c-4.1,1.2-10,1.6-23,1.6-15.1.1-17-.3-19.7-1.3a43.38,43.38,0,0,1-4.3-2.1c-2.1-.7-11.1-7.7-14.1-13.3-2.8-5.4-3.1-6.8-3.2-14.8,0-8.4,1.2-13.5,4.4-18.9a25.28,25.28,0,0,0,1.8-3.7c1.3-2.8,9.6-11.1,12.4-12.4a25.28,25.28,0,0,0,3.7-1.8c6.5-3.9,10.5-4.6,26.5-4.6,12.1.1,17.4.5,21.7,1.8a39.12,39.12,0,0,0,8.4,1.7H444l-.6-19.6c-.4-12.7-1-20.1-1.8-21-.6-.8-2.6-1.4-4.3-1.4a98.52,98.52,0,0,1-10.9-1.5C416,73.1,382.82,73.2,374.22,75.2Z"/><path class="cls-4" d="M474.42,77.3c-.4.3-.7,4.5-.7,9.2s-.7,14.9-1.5,22.6-1.5,16.9-1.5,20.5-.7,12.1-1.5,19-1.5,14.7-1.5,17.5a160.19,160.19,0,0,1-1.5,17c-3.3,27.7-3.9,32.3-4.3,37.8l-.4,5.7,23.9-.2,23.8-.3.7-23c.3-12.7,1.1-27.3,1.7-32.5s1.1-13.3,1.1-18c.1-4.2.4-8.4.9-12.5l.7-4,1,1.8a75.33,75.33,0,0,1,2.4,9.1c.3,2.7,1.8,8.7,2.6,13.1s2.1,12.5,3,18,2.3,13.6,3,18,2.1,12.5,3.1,18,1.8,10.6,2,11.2c.3,1,6.1,1.3,24.9,1.3s24.6-.3,24.9-1.3c.2-.6,1.2-3.9,2.1-7.2,1.7-5.8,2.5-8.5,6.1-21,.9-3.3,2.3-8,3-10.5,1.4-5,3.6-12.9,6-21.7.9-3.2,2.2-7.8,3-10.3l1.4-6.2,1.4-5s1.1-3,2.4-5.9l1.1-1.9a69.27,69.27,0,0,1,.6,12c-.3,5.8-.9,20.8-1.5,33.5s-1.2,28.1-1.5,34.3l-.5,11.2,24.7-.2,24.8-.3.7-33c.9-46.9,2.5-90.2,3.8-102.8.7-6,.9-11.5.6-12.3-.5-1.2-6.2-1.4-38.8-1.2-37.4.3-38.3.3-38.6,2.3-.1,1.1-1,4.5-1.8,7.5s-2.2,7.5-2.9,10-1.9,7.1-2.8,10.3-2.4,8.3-3.2,11.5-2.2,7.9-3,10.7c-1.4,4.9-7,19.8-7,19.8l-1.9-9.8c-1.7-12.3-3.6-24.4-6.1-39.5-.8-4.7-1.6-10.6-1.9-13.1a46.11,46.11,0,0,0-1.5-7.2l-1.1-2.7H512C491.62,76.6,474.72,76.9,474.42,77.3Z"/><path class="cls-4" d="M681.42,77.8c-.3.7-.7,11.2-1.1,23.3-1.3,45.5-3.2,79.7-5.6,101.5-.6,5.2-1.3,12.8-1.6,16.7l-.6,7.3h134.2l.5-5.3c.3-2.8.7-12,.8-20.2l.3-15-13.5.5c-7.4.3-24.1.5-37,.5h-23.5l.2-6.3c.1-3.5.7-7,1.4-7.8.9-1.2,6.1-1.4,30-1.4,17.8,0,29-.4,29.4-1,.9-1.5,3.8-36.6,3.2-38.4-.5-1.3-4.3-1.4-29.4-.9-24,.5-29,.4-29.9-.8-.8-.9-1-3.6-.5-7.9l.6-6.5,36.4-.2c26.9-.1,36.6-.5,37.1-1.3.8-1.3,2-36,1.3-37.3-.2-.4-30.1-.7-66.4-.7C695.82,76.6,681.72,76.9,681.42,77.8Z"/></g><path id="A" class="cls-5" d="M177,6c-2.4,4.8-4.4,5.1-6.5,1-1.8-3.6-2.3-3.6-6.8-1C160,8.2,159,11.1,159,19.8c0,11.6-4,17.3-10.5,15.2-2.7-.9-5.1-.8-11.2.4-4.3.8-10.7,1.8-14.3,2.1-9.3.9-31.2,9.8-37,15.1-1.4,1.3-4.2,3.8-6.4,5.6-5.6,4.7-15.2,17.7-20.1,27.3-1.4,2.7-3.7,6.8-5,9a19.59,19.59,0,0,0-2.5,6.6,8.94,8.94,0,0,1-1.5,4.5c-.8,1-1.5,4-1.5,6.5,0,2.9-.6,5.1-1.5,5.9a5.54,5.54,0,0,0-1.5,3.6c0,3.6-2.9,13.7-4.1,14.5-1.7,1-18.7,2.4-26.4,2.1a58,58,0,0,0-10.2.3c-3.8.7-4.6,3.5-1,3.5,2.6,0,5.1,2.3,6.1,5.6.4,1.2,2.3,2.8,4.6,3.7,3.5,1.3,4,2,4,4.7q0,3-1.8,3.6a44.26,44.26,0,0,0-4.5,2,16.65,16.65,0,0,1-5.3,1.4c-3,0-3.1,1.6-.1,4.1,2,1.6,4.1,1.8,20.2,1.9h18l1.9,6.3c1.8,5.7,7.4,17.5,9.8,20.4.7.9.1,2.4-2.1,5.2a23.18,23.18,0,0,0-3.1,4.4c0,1-8.6,15-13.5,22.2-11,15.9-10.9,15.7-10.9,20.4l-.1,4.6,5.6.2c5,.2,5.9-.1,8.7-2.8,4.2-4.1,6.7-3.6,6.7,1.5s2,5.7,3.8,1.4a45.21,45.21,0,0,1,6.5-8.6c2.7-2.9,5.2-6.3,5.5-7.5,1.2-4.7,3.9-11.3,5.5-13.5l1.8-2.3,4.7,2.6a38.78,38.78,0,0,1,7.2,4.7,43.58,43.58,0,0,0,6.7,4.5c14.1,7,17.1,8.3,19.5,8.3a8.52,8.52,0,0,1,5.2,2.5c2.5,2.3,3.2,2.4,22.2,3.1,17.1.6,20,.5,22.9-1a14.12,14.12,0,0,1,4.9-1.6,9.33,9.33,0,0,0,3.9-1.5c1.5-1.1,4-1.5,8.3-1.3l6.1.3,1.5,4c.8,2.2,1.9,5.5,2.4,7.2.7,2.3,1.6,3.3,3,3.3a2.72,2.72,0,0,1,2.5,1.7q1.2,3.15,2.7,6.3l2.2,4.5.3-4.5c.4-7.6,1-9,3.7-9s6.5,3.5,6.5,5.8a32.6,32.6,0,0,0,2.5,6.8,63.16,63.16,0,0,1,3.4,9.5c2.2,9.9,3.4,4,2.8-14.2-.4-13.1-1.8-30.4-3.2-40.2-.5-3.5-.2-4.2,3.5-7.8a59.2,59.2,0,0,0,6.8-8.2,64,64,0,0,1,5.5-7.1c1.5-1.7,2.7-3.8,2.7-4.7a14.46,14.46,0,0,1,1.4-4.6c.8-1.5,2.2-4.6,3.1-6.8s3.5-7.8,5.7-12.3c5.6-11.6,5.7-11.6,30.3-10.8,18.6.6,24.5.1,25.2-2.1.5-1.5-4.1-2.4-12.4-2.5-4-.1-7.7-.7-9-1.5-2.6-1.7-11.4-3.8-19.8-4.8-3.3-.4-6.6-1-7.3-1.4-.9-.5-1.3-5-1.6-15.7s-.8-16.1-1.9-18.5a38,38,0,0,1-2.1-8.2c-.6-4.9-2.8-10-5.3-12.6-2.4-2.3-5.9-8.4-6.6-11.3-.4-1.5-3.2-5.4-6.3-8.8-4.4-4.7-6.3-6-8.5-6s-2.9-.5-2.9-2.1c0-5.3-12.2-15-20.4-16.2-2.2-.4-4.6-1.3-5.4-2.1s-2.1-5.8-2.9-11.8c-.8-5.6-2.1-11-2.9-11.9-1-1.1-1.4-4.2-1.4-11.2,0-5.7-.4-9.7-1-9.7S178.12,3.8,177,6ZM139,59.9a4.59,4.59,0,0,1-1.5,3.1,4.82,4.82,0,0,0-1.5,2.2c0,.5-2,3.5-4.3,6.6-5.2,6.8-6.7,9.4-6.7,11.9,0,1.1-1.2,3.5-2.6,5.4-2.2,3-5.5,9.4-9.1,17.9a28.54,28.54,0,0,1-4,5.8,79.45,79.45,0,0,0-5.3,7.6,136.86,136.86,0,0,1-8.4,11.6l-5.9,7.2-7.1-.7c-3.9-.4-9-.6-11.2-.6-5.1.1-5.2-.2-4.4-13.4.6-9.2,1.7-13.9,4.2-18.9a39.12,39.12,0,0,0,2.4-6.5,37.2,37.2,0,0,1,4.9-9.5c1.9-2.7,3.5-5.4,3.5-6s2.1-2.9,4.7-5.1,7.3-6.3,10.6-9.1c4.2-3.7,7.3-5.5,10.6-6.2,6.4-1.4,16.4-4.2,17-4.7.2-.3,3.5-.5,7.3-.5C138.22,58,139,58.2,139,59.9Zm52.9,9.3c6,4.4,10,8.6,10.1,10.4s4.7,4.4,7.9,4.4c2.5,0,3.2.5,3.6,2.7a23.46,23.46,0,0,0,2,5.6,12.11,12.11,0,0,1,1.5,4.4c0,.8,1.9,4,4.3,7.1,7.6,10,9.1,13.1,9.3,19.2.1,3,.5,8.3.9,11.6,1,8.2-.6,10.1-8.5,9.8-3-.2-10-.5-15.5-.7s-11-.9-12.2-1.5c-2.3-1.3-3.8-6-2.8-9.1.3-1-.8-6-2.5-11-2.8-8.4-3.1-10.6-3.6-27.4-.4-12.9-1-19.2-2.1-21.5-1.6-3.5-1.1-8.2.9-8.2.6,0,3.6,1.9,6.7,4.2Zm-27.7,4.7c.1,2.5.2,10.9.3,18.6s.7,21.6,1.2,31,.8,17.3.4,17.8-10.8.6-23.2.5l-22.4-.3-.3-2.3a8.9,8.9,0,0,1,1.5-5c2.5-3.7,5.2-9.4,5.3-11.1,0-.7,3.2-6,7-11.7s7.4-12.2,7.9-14.3a24.4,24.4,0,0,1,3.5-7.7,19.26,19.26,0,0,0,2.6-4.9c0-.6,1.4-2.4,3-4s3-3.3,3-3.7,1.7-3.1,3.7-5.9c3.4-4.5,3.9-4.8,5-3.2.7.9,1.4,3.7,1.5,6.2Zm61,86.9c.5.5-.5,5.1-2.5,11.1-2.5,7.5-4.8,12-8.3,16.7-2.7,3.5-5.4,6.4-6.1,6.4-2,0-3.4-4.7-3.8-12.2a47.52,47.52,0,0,0-4-17.4c-1.4-3.2-1-4.7,1.5-5.7,2.1-1,22.1,0,23.2,1.1Zm-73.8.7c20.4.2,19.4-.5,20.6,15.2,1,12.5,2.7,21.1,4.8,23.5,1,1.2,1.2,2.8.8,5-.8,3.8-.8,4.4,0,11.7l.6,5.4-2.7-.7c-1.5-.4-3.2-.3-3.8.2-1.7,1.3-11.1,3.4-13.9,3.1-1.3-.2-5.7.9-9.9,2.5-7.3,2.7-7.6,2.7-12,1.1-2.4-.9-4.9-1.7-7.4-2.4a36.48,36.48,0,0,1-10.5-4.6,36.6,36.6,0,0,0-8-3,36.6,36.6,0,0,1-8-3,9.19,9.19,0,0,0-2.7-1.6,51.3,51.3,0,0,1-6-4.4c-10.4-8.6-10.6-9.3-5.2-15.4,1.6-1.9,2.9-3.9,2.9-4.6a4.8,4.8,0,0,1,1.4-2.5c.8-.6,2.3-3.3,3.2-5.8s2.6-5.6,3.7-6.6a17.73,17.73,0,0,0,3.2-5,16.27,16.27,0,0,1,3.3-4.9c2.8-2.5,15.4-4.7,22.7-4,3.3.3,13.6.7,22.9.8Zm-80,1.1c2.3.9,1.9,3.4-.9,6.9-2,2.5-2.8,2.8-4.2,1.9-1.1-.6-1.9-2.6-2.1-4.7-.3-3.2-.1-3.6,2.5-4a15.94,15.94,0,0,0,3-.6,8.45,8.45,0,0,1,1.7.5Z"/></svg>